<?xml version="1.0" encoding="UTF-8" standalone="no"?><!DOCTYPE svg PUBLIC "-//W3C//DTD SVG 1.1//EN" "http://www.w3.org/Graphics/SVG/1.1/DTD/svg11.dtd"><svg width="100%" height="100%" viewBox="0 0 91 60" version="1.1" xmlns="http://www.w3.org/2000/svg" xmlns:xlink="http://www.w3.org/1999/xlink" xml:space="preserve" xmlns:serif="http://www.serif.com/" style="fill-rule:evenodd;clip-rule:evenodd;stroke-linejoin:round;stroke-miterlimit:1.41421;"><g id="Vrstva_1-2"><path d="M47.23,18.3l-0.1,1.31l-4.68,16.47l9.59,0l-4.71,-16.47l-0.1,-1.31Z" style="fill:#fff;fill-rule:nonzero;"/><path d="M26.95,16.49c-0.523,-0.522 -1.141,-0.939 -1.82,-1.23c-0.704,-0.303 -1.464,-0.456 -2.23,-0.45l-7.9,0l0,29.58l7.9,0c0.766,0.006 1.526,-0.147 2.23,-0.45c0.677,-0.29 1.294,-0.704 1.82,-1.22c0.524,-0.518 0.941,-1.133 1.23,-1.81c0.303,-0.704 0.456,-1.464 0.45,-2.23l0,-18.14c0.006,-0.766 -0.147,-1.526 -0.45,-2.23c-0.291,-0.679 -0.708,-1.297 -1.23,-1.82Z" style="fill:#fff;fill-rule:nonzero;"/><path d="M0,0l0,59.2l90.61,0l0,-59.2l-90.61,0Zm31.84,38.69c0.006,1.172 -0.229,2.333 -0.69,3.41c-0.891,2.107 -2.571,3.784 -4.68,4.67c-1.082,0.457 -2.246,0.688 -3.42,0.68l-11.3,0l0,-35.7l11.3,0c1.174,-0.008 2.338,0.224 3.42,0.68c2.112,0.886 3.794,2.568 4.68,4.68c0.46,1.081 0.695,2.245 0.69,3.42l0,18.16Zm23.41,8.77l-2.37,-8.32l-11.3,0l-2.34,8.32l-3.34,0l10.46,-35.71l1.69,0l10.51,35.71l-3.31,0Zm23.56,-32.65l-8.52,0l0,32.65l-3.21,0l0,-32.65l-8.52,0l0,-3.06l20.25,0l0,3.06Z" style="fill:#fff;fill-rule:nonzero;"/></g></svg>