<?xml version="1.0" encoding="UTF-8" standalone="no"?><!DOCTYPE svg PUBLIC "-//W3C//DTD SVG 1.1//EN" "http://www.w3.org/Graphics/SVG/1.1/DTD/svg11.dtd"><svg width="100%" height="100%" viewBox="0 0 29 35" version="1.1" xmlns="http://www.w3.org/2000/svg" xmlns:xlink="http://www.w3.org/1999/xlink" xml:space="preserve" xmlns:serif="http://www.serif.com/" style="fill-rule:evenodd;clip-rule:evenodd;stroke-linejoin:round;stroke-miterlimit:1.41421;"><rect id="Artboard1" x="0" y="0" width="29" height="35" style="fill:none;"/><g><path d="M24.174,18.489c-0.051,0.914 0.127,1.828 0.533,2.742c0.711,1.879 2.082,3.301 4.113,4.266c-0.609,1.929 -1.549,3.783 -2.818,5.56c-1.676,2.285 -3.326,3.453 -4.951,3.504c-0.711,0 -1.625,-0.228 -2.742,-0.686c-1.219,-0.457 -2.26,-0.685 -3.123,-0.685c-0.864,0 -1.956,0.254 -3.276,0.762c-1.066,0.406 -1.879,0.609 -2.437,0.609c-1.118,0.051 -2.311,-0.559 -3.58,-1.828c-0.965,-0.965 -1.93,-2.285 -2.895,-3.961c-0.762,-1.371 -1.346,-2.615 -1.752,-3.732c-0.711,-2.133 -1.066,-4.19 -1.066,-6.17c0,-2.184 0.431,-4.063 1.295,-5.637c0.812,-1.473 1.891,-2.59 3.237,-3.352c1.346,-0.761 2.755,-1.168 4.227,-1.218c0.813,0 2.057,0.304 3.733,0.914c1.066,0.406 1.752,0.609 2.057,0.609c0.304,0 0.939,-0.178 1.904,-0.533c0.965,-0.356 1.726,-0.61 2.285,-0.762c0.965,-0.254 1.828,-0.355 2.59,-0.305c2.894,0.254 5.053,1.397 6.474,3.428c-2.589,1.524 -3.859,3.682 -3.808,6.475Zm-4.342,-12.569l0,0.077c-1.625,1.878 -3.377,2.742 -5.256,2.589c-0.203,-2.031 0.432,-3.859 1.904,-5.484c0.61,-0.711 1.397,-1.32 2.362,-1.828c0.965,-0.508 1.904,-0.787 2.818,-0.838c0.152,2.031 -0.457,3.859 -1.828,5.484Z" style="fill:#fff;fill-rule:nonzero;"/></g></svg>