<svg xmlns="http://www.w3.org/2000/svg" viewBox="0 0 1299.503 1103.32"><defs><style>.a{opacity:0.1;}.b{opacity:0.2;}.c{fill:#fff;}.d{opacity:0.7;}</style></defs><g transform="translate(-970 47)"><g class="a" transform="translate(970 -47)"><g class="b"><path class="c" d="M4.98,71.7,120.678.02V143.385Z" transform="translate(203.779 0.818)"/><path class="c" d="M8.29,77.372,123.568,5.69V149.055Z" transform="translate(339.222 232.832)"/><path class="c" d="M11.63,79.3,126.909,7.62V150.984Z" transform="translate(475.893 311.806)"/><path class="c" d="M4.98,79.282,120.678,7.6V150.965Z" transform="translate(203.779 310.988)"/><path class="c" d="M1.65,84.663,117.348,13.4V156.345Z" transform="translate(67.517 548.321)"/><path class="c" d="M15.1,73.572,130.378,1.89V145.255Z" transform="translate(617.884 77.338)"/><path class="c" d="M123.438,79.282,8.16,150.965V7.6Z" transform="translate(333.903 310.988)"/><path class="c" d="M127.128,81.242,11.43,152.924V9.56Z" transform="translate(467.709 391.19)"/><path class="c" d="M126.648,77.382,11.37,149.065V5.7Z" transform="translate(465.254 233.241)"/><path class="c" d="M133.4,77.422,18.12,149.1V5.74Z" transform="translate(741.461 234.878)"/><path class="c" d="M130.078,75.512,14.8,147.195V3.83Z" transform="translate(605.608 156.721)"/><path class="c" d="M130.1,86.892,14.82,158.574V15.21Z" transform="translate(606.426 622.385)"/><path class="c" d="M116.758,79.332,1.48,151.015V7.65Z" transform="translate(60.561 313.034)"/><path class="c" d="M263.01,151.748,8.14,303.5V0Z" transform="translate(333.084)"/><path class="c" d="M259.68,161.248,4.81,313V9.5Z" transform="translate(196.823 388.735)"/><path class="c" d="M8.39,163.178,263.26,11.43v303.5Z" transform="translate(343.314 467.709)"/><path class="c" d="M0,37.842,49.046,7.66V68.024Z" transform="translate(0 313.443)"/><path class="c" d="M13.29,34.042,61.917,3.86V64.224Z" transform="translate(543.82 157.949)"/><path class="c" d="M13.29,35.942,61.917,5.76V66.124Z" transform="translate(543.82 235.696)"/><path class="c" d="M11.6,35.451,60.646,4.85V65.633Z" transform="translate(474.666 198.459)"/><path class="c" d="M8.24,41.121l48.627-30.6V71.3Z" transform="translate(337.176 430.473)"/><path class="c" d="M9.98,40.091,59.026,9.49V70.273Z" transform="translate(408.376 388.326)"/><path class="c" d="M9.98,41.612,59.026,11.43V71.794Z" transform="translate(408.376 467.709)"/><path class="c" d="M1.64,41.151l48.627-30.6V71.333Z" transform="translate(67.108 431.7)"/><path class="c" d="M3.35,39.742,51.977,9.56V69.924Z" transform="translate(137.08 391.19)"/><path class="c" d="M3.35,41.642,51.977,11.46V71.824Z" transform="translate(137.08 468.937)"/><path class="c" d="M15.01,36.862,64.056,6.68V67.463Z" transform="translate(614.201 273.342)"/><path class="c" d="M16.59,35.952,65.217,5.77V66.134Z" transform="translate(678.854 236.105)"/><path class="c" d="M16.59,37.842,65.217,7.66V68.024Z" transform="translate(678.854 313.443)"/><path class="c" d="M18.21,33.022,66.837,2.84V63.623Z" transform="translate(745.143 116.211)"/><path class="c" d="M19.95,37.822,69,7.64V68Z" transform="translate(816.343 312.625)"/><path class="c" d="M62.126,34.992,13.08,65.174V4.81Z" transform="translate(535.226 196.823)"/><path class="c" d="M58.377,40.752,9.75,71.353V10.57Z" transform="translate(398.965 432.519)"/><path class="c" d="M51.807,40.692,3.18,70.874V10.51Z" transform="translate(130.124 430.063)"/><path class="c" d="M57.176,45.422,8.13,76.023V15.24Z" transform="translate(332.675 623.612)"/><path class="c" d="M65.556,36.9,16.51,67.084V6.72Z" transform="translate(675.58 274.979)"/><path class="c" d="M63.4,43.772,14.77,74.373V13.59Z" transform="translate(604.38 556.095)"/><path class="c" d="M67.216,34.032,18.17,64.633V3.85Z" transform="translate(743.506 157.54)"/><path class="c" d="M14.87,81.342,130.148,9.66V152.605Z" transform="translate(608.472 395.282)"/><path class="c" d="M18.17,87.012l115.7-71.682V158.275Z" transform="translate(743.506 627.295)"/><path class="c" d="M21.52,88.942,136.8,17.26V160.205Z" transform="translate(880.587 706.27)"/><path class="c" d="M14.87,88.922,130.148,17.24V160.185Z" transform="translate(608.472 705.451)"/><path class="c" d="M133.328,88.5,18.05,160.185V17.24Z" transform="translate(738.596 705.451)"/><path class="c" d="M143.7,87.062,28,158.745V15.38Z" transform="translate(1145.745 629.341)"/><path class="c" d="M127.058,88.972,11.36,160.235V17.29Z" transform="translate(464.845 707.497)"/><path class="c" d="M9.89,47.891l48.627-30.6V78.073Z" transform="translate(404.693 707.497)"/><path class="c" d="M23.17,44.091l49.046-30.6V74.273Z" transform="translate(948.104 552.003)"/><path class="c" d="M23.17,45.991l49.046-30.6V76.173Z" transform="translate(948.104 629.75)"/><path class="c" d="M21.49,44.672,70.117,14.49V75.273Z" transform="translate(879.359 592.923)"/><path class="c" d="M18.13,50.342,66.757,20.16V80.943Z" transform="translate(741.87 824.936)"/><path class="c" d="M19.87,49.312,68.5,19.13V79.913Z" transform="translate(813.07 782.789)"/><path class="c" d="M19.87,51.661,68.5,21.06V81.843Z" transform="translate(813.07 861.764)"/><path class="c" d="M11.52,50.372,60.566,20.19V80.973Z" transform="translate(471.392 826.164)"/><path class="c" d="M13.23,49.791l49.046-30.6V79.973Z" transform="translate(541.364 785.244)"/><path class="c" d="M13.23,51.691l49.046-30.6V81.873Z" transform="translate(541.364 862.991)"/><path class="c" d="M24.89,46.5,73.936,16.32V76.684Z" transform="translate(1018.485 667.806)"/><path class="c" d="M26.47,47.891l49.046-30.6V78.073Z" transform="translate(1083.138 707.497)"/><path class="c" d="M28.09,42.662,77.136,12.48V72.844Z" transform="translate(1149.427 510.675)"/><path class="c" d="M29.84,47.871l48.627-30.6V78.053Z" transform="translate(1221.036 706.679)"/><path class="c" d="M71.6,44.622,22.97,75.223V14.44Z" transform="translate(939.92 590.877)"/><path class="c" d="M62.106,50.322,13.06,80.923V20.14Z" transform="translate(534.408 824.118)"/><path class="c" d="M66.647,55.062,18.02,85.244V24.88Z" transform="translate(737.369 1018.076)"/><path class="c" d="M75.436,46.532,26.39,77.133V16.35Z" transform="translate(1079.865 669.033)"/><path class="c" d="M73.277,53.412,24.65,83.594V23.23Z" transform="translate(1008.665 950.559)"/><path class="c" d="M77.1,43.672,28.05,73.854V13.49Z" transform="translate(1147.791 552.003)"/></g><g class="d"><path class="c" d="M138.548,71.7,23.27.02V143.385Z" transform="translate(952.196 0.818)"/><path class="c" d="M135.658,77.372,19.96,5.69V149.055Z" transform="translate(816.752 232.832)"/><path class="c" d="M131.9,79.3,16.62,7.62V150.984Z" transform="translate(680.081 311.806)"/><path class="c" d="M138.548,79.282,23.27,7.6V150.965Z" transform="translate(952.196 310.988)"/><path class="c" d="M141.878,84.663,26.6,13.4V156.345Z" transform="translate(1088.458 548.321)"/><path class="c" d="M128.428,73.572,13.15,1.89V145.255Z" transform="translate(538.091 77.338)"/><path class="c" d="M20.09,79.282l115.279,71.682V7.6Z" transform="translate(822.072 310.988)"/><path class="c" d="M16.82,81.242,132.1,152.924V9.56Z" transform="translate(688.265 391.19)"/><path class="c" d="M16.88,77.382l115.279,71.682V5.7Z" transform="translate(690.72 233.241)"/><path class="c" d="M10.13,77.422,125.408,149.1V5.74Z" transform="translate(414.514 234.878)"/><path class="c" d="M13.45,75.512l115.279,71.682V3.83Z" transform="translate(550.367 156.721)"/><path class="c" d="M13.43,86.892l115.279,71.682V15.21Z" transform="translate(549.548 622.385)"/><path class="c" d="M26.77,79.332l115.279,71.682V7.65Z" transform="translate(1095.414 313.034)"/><path class="c" d="M16.78,151.748,271.65,303.5V0Z" transform="translate(686.628)"/><path class="c" d="M20.11,161.248,275.4,313V9.5Z" transform="translate(822.89 388.735)"/><path class="c" d="M271.819,163.178,16.53,11.43v303.5Z" transform="translate(676.399 467.709)"/><path class="c" d="M78.467,37.842,29.84,7.66V68.024Z" transform="translate(1221.036 313.443)"/><path class="c" d="M65.6,34.042,16.55,3.86V64.224Z" transform="translate(677.217 157.949)"/><path class="c" d="M65.6,35.942,16.55,5.76V66.124Z" transform="translate(677.217 235.696)"/><path class="c" d="M67.276,35.451,18.23,4.85V65.633Z" transform="translate(745.962 198.459)"/><path class="c" d="M70.227,41.121,21.6,10.52V71.3Z" transform="translate(883.86 430.473)"/><path class="c" d="M68.9,40.091,19.85,9.49V70.273Z" transform="translate(812.251 388.326)"/><path class="c" d="M68.9,41.612,19.85,11.43V71.794Z" transform="translate(812.251 467.709)"/><path class="c" d="M77.246,41.151,28.2,10.55V71.333Z" transform="translate(1153.929 431.7)"/><path class="c" d="M75.117,39.742,26.49,9.56V69.924Z" transform="translate(1083.956 391.19)"/><path class="c" d="M75.117,41.642,26.49,11.46V71.824Z" transform="translate(1083.956 468.937)"/><path class="c" d="M63.457,36.862,14.83,6.68V67.463Z" transform="translate(606.836 273.342)"/><path class="c" d="M61.877,35.952,13.25,5.77V66.134Z" transform="translate(542.183 236.105)"/><path class="c" d="M61.877,37.842,13.25,7.66V68.024Z" transform="translate(542.183 313.443)"/><path class="c" d="M60.257,33.022,11.63,2.84V63.623Z" transform="translate(475.893 116.211)"/><path class="c" d="M58.517,37.822,9.89,7.64V68Z" transform="translate(404.693 312.625)"/><path class="c" d="M16.75,34.992,65.8,65.174V4.81Z" transform="translate(685.401 196.823)"/><path class="c" d="M20.09,40.752l48.627,30.6V10.57Z" transform="translate(822.072 432.519)"/><path class="c" d="M26.66,40.692,75.287,70.874V10.51Z" transform="translate(1090.913 430.063)"/><path class="c" d="M21.71,45.422l48.627,30.6V15.24Z" transform="translate(888.361 623.612)"/><path class="c" d="M13.33,36.9,61.957,67.084V6.72Z" transform="translate(545.456 274.979)"/><path class="c" d="M15.07,43.772l49.046,30.6V13.59Z" transform="translate(616.656 556.095)"/><path class="c" d="M11.67,34.032,60.3,64.633V3.85Z" transform="translate(477.53 157.54)"/><path class="c" d="M128.658,81.342,13.38,9.66V152.605Z" transform="translate(547.502 395.282)"/><path class="c" d="M125.359,87.012,10.08,15.33V158.275Z" transform="translate(412.468 627.295)"/><path class="c" d="M122.428,88.942,6.73,17.26V160.205Z" transform="translate(275.388 706.27)"/><path class="c" d="M128.658,88.922,13.38,17.24V160.185Z" transform="translate(547.502 705.451)"/><path class="c" d="M10.2,88.5l115.7,71.682V17.24Z" transform="translate(417.378 705.451)"/><path class="c" d="M.24,87.062l115.7,71.682V15.38Z" transform="translate(9.821 629.341)"/><path class="c" d="M16.88,88.972l115.7,71.263V17.29Z" transform="translate(690.72 707.497)"/><path class="c" d="M69,47.891,19.95,17.29V78.073Z" transform="translate(816.343 707.497)"/><path class="c" d="M55.3,44.091,6.67,13.49V74.273Z" transform="translate(272.933 552.003)"/><path class="c" d="M55.3,45.991,6.67,15.39V76.173Z" transform="translate(272.933 629.75)"/><path class="c" d="M56.977,44.672,8.35,14.49V75.273Z" transform="translate(341.677 592.923)"/><path class="c" d="M60.756,50.342,11.71,20.16V80.943Z" transform="translate(479.167 824.936)"/><path class="c" d="M58.6,49.312,9.97,19.13V79.913Z" transform="translate(407.967 782.789)"/><path class="c" d="M58.6,51.661,9.97,21.06V81.843Z" transform="translate(407.967 861.764)"/><path class="c" d="M66.947,50.372,18.32,20.19V80.973Z" transform="translate(749.644 826.164)"/><path class="c" d="M65.646,49.791,16.6,19.19V79.973Z" transform="translate(679.263 785.244)"/><path class="c" d="M65.646,51.691,16.6,21.09V81.873Z" transform="translate(679.263 862.991)"/><path class="c" d="M53.986,46.5,4.94,16.32V76.684Z" transform="translate(202.142 667.806)"/><path class="c" d="M52,47.891,3.37,17.29V78.073Z" transform="translate(137.899 707.497)"/><path class="c" d="M50.377,42.662,1.75,12.48V72.844Z" transform="translate(71.609 510.675)"/><path class="c" d="M49.046,47.871,0,17.27V78.053Z" transform="translate(0 706.679)"/><path class="c" d="M6.87,44.622,55.5,75.223V14.44Z" transform="translate(281.117 590.877)"/><path class="c" d="M16.77,50.322l49.046,30.6V20.14Z" transform="translate(686.219 824.118)"/><path class="c" d="M11.82,55.062,60.866,85.244V24.88Z" transform="translate(483.668 1018.076)"/><path class="c" d="M3.44,46.532l49.046,30.6V16.35Z" transform="translate(140.763 669.033)"/><path class="c" d="M5.19,53.412,53.817,83.594V23.23Z" transform="translate(212.372 950.559)"/><path class="c" d="M1.78,43.672,50.826,73.854V13.49Z" transform="translate(72.837 552.003)"/></g></g></g></svg>