<svg xmlns="http://www.w3.org/2000/svg" viewBox="0 0 30 20"><defs><style>.a{fill:#fff7ee;}.b{fill:#e02424;}.c{opacity:0.1;}.d{fill:#0853a4;}.e{fill:#fff;}</style></defs><g transform="translate(0 -87.005)"><path class="a" d="M30,106.367a.637.637,0,0,1-.632.638H.632A.637.637,0,0,1,0,106.367V87.643A.637.637,0,0,1,.632,87H29.368a.637.637,0,0,1,.632.638Z"/><g transform="translate(0 87.005)"><path class="b" d="M226.473,87.006h-17.1V88.93H227.1V87.644A.637.637,0,0,0,226.473,87.006Z" transform="translate(-197.104 -87.006)"/><path class="b" d="M197.933,209.2v1.2a.72.72,0,0,1-.712.723h18.444V209.2H197.933Z" transform="translate(-185.665 -201.967)"/><rect class="b" width="30" height="1.924" transform="translate(0 10.846)"/></g><rect class="c" width="1.926" height="1.924" transform="translate(0 97.851)"/><g transform="translate(0 90.62)"><rect class="b" width="30" height="1.924" transform="translate(0 10.846)"/><path class="b" d="M30,393.773v-1.286H0v1.286a.637.637,0,0,0,.632.638H29.368A.637.637,0,0,0,30,393.773Z" transform="translate(0 -378.026)"/><rect class="b" width="17.732" height="1.924" transform="translate(12.268 0)"/></g><path class="d" d="M.632,87.006A.637.637,0,0,0,0,87.644V96.16H12.229a.72.72,0,0,0,.712-.723V87.006Z" transform="translate(0 -0.001)"/><path class="c" d="M2.621,87.006H.632A.637.637,0,0,0,0,87.644V96.16H1.989V87.644A.637.637,0,0,1,2.621,87.006Z" transform="translate(0 -0.001)"/><g transform="translate(1.127 87.874)"><path class="e" d="M37.251,116.263a.087.087,0,0,1-.042-.011l-.172-.094-.172.094a.087.087,0,0,1-.042.011.088.088,0,0,1-.053-.018.1.1,0,0,1-.036-.091l.033-.2-.139-.14a.1.1,0,0,1-.023-.1.091.091,0,0,1,.073-.064l.192-.029.086-.181a.089.089,0,0,1,.162,0l.086.181.192.029a.091.091,0,0,1,.073.064.1.1,0,0,1-.023.1l-.139.14.033.2a.1.1,0,0,1-.036.091A.089.089,0,0,1,37.251,116.263Z" transform="translate(-35.582 -114.583)"/><path class="e" d="M37.251,143.684a.086.086,0,0,1-.042-.011l-.172-.094-.172.094a.086.086,0,0,1-.042.011.088.088,0,0,1-.053-.018.1.1,0,0,1-.036-.091l.033-.2-.139-.14a.1.1,0,0,1-.023-.1.092.092,0,0,1,.073-.064l.192-.029.086-.181a.089.089,0,0,1,.162,0l.086.181.192.029a.092.092,0,0,1,.073.064.1.1,0,0,1-.023.1l-.139.14.033.2a.1.1,0,0,1-.036.091A.088.088,0,0,1,37.251,143.684Z" transform="translate(-35.582 -140.381)"/><path class="e" d="M37.251,171.106a.088.088,0,0,1-.042-.011L37.036,171l-.172.094a.087.087,0,0,1-.042.011.089.089,0,0,1-.053-.018.1.1,0,0,1-.036-.091l.033-.2-.139-.14a.1.1,0,0,1-.023-.1.091.091,0,0,1,.073-.064l.192-.029.086-.181a.089.089,0,0,1,.162,0l.086.181.192.029a.092.092,0,0,1,.073.064.1.1,0,0,1-.023.1l-.139.14.033.2a.1.1,0,0,1-.036.091A.089.089,0,0,1,37.251,171.106Z" transform="translate(-35.582 -166.18)"/><path class="e" d="M37.251,198.524a.088.088,0,0,1-.042-.011l-.172-.094-.172.094a.087.087,0,0,1-.042.011.088.088,0,0,1-.053-.018.1.1,0,0,1-.036-.091l.033-.2-.139-.14a.1.1,0,0,1-.023-.1.091.091,0,0,1,.073-.064l.192-.029.086-.181a.089.089,0,0,1,.162,0l.086.181.192.029a.092.092,0,0,1,.073.064.1.1,0,0,1-.023.1l-.139.14.033.2a.1.1,0,0,1-.036.091A.088.088,0,0,1,37.251,198.524Z" transform="translate(-35.582 -191.976)"/><path class="e" d="M19.882,102.552a.086.086,0,0,1-.042-.011l-.172-.094-.172.094a.087.087,0,0,1-.042.011.088.088,0,0,1-.053-.018.1.1,0,0,1-.036-.091l.033-.2-.139-.14a.1.1,0,0,1-.023-.1.091.091,0,0,1,.073-.064l.192-.029.086-.181a.089.089,0,0,1,.162,0l.086.181.192.029a.091.091,0,0,1,.073.064.1.1,0,0,1-.023.1l-.139.14.033.2a.1.1,0,0,1-.036.091A.088.088,0,0,1,19.882,102.552Z" transform="translate(-19.23 -101.683)"/><path class="e" d="M19.882,129.973a.089.089,0,0,1-.042-.011l-.172-.094-.172.094a.088.088,0,0,1-.042.011.089.089,0,0,1-.053-.018.1.1,0,0,1-.036-.091l.033-.2-.139-.14a.1.1,0,0,1-.023-.1.091.091,0,0,1,.073-.064l.192-.029.086-.181a.089.089,0,0,1,.162,0l.086.181.192.029a.091.091,0,0,1,.073.064.1.1,0,0,1-.023.1l-.139.14.033.2a.1.1,0,0,1-.036.091A.089.089,0,0,1,19.882,129.973Z" transform="translate(-19.23 -127.481)"/><path class="e" d="M19.882,157.394a.089.089,0,0,1-.042-.011l-.172-.094-.172.094a.088.088,0,0,1-.1-.007.1.1,0,0,1-.036-.091l.033-.2-.139-.14a.1.1,0,0,1-.023-.1.091.091,0,0,1,.073-.064l.192-.029.086-.181a.089.089,0,0,1,.162,0l.086.181.192.029a.091.091,0,0,1,.073.064.1.1,0,0,1-.023.1l-.139.14.033.2a.1.1,0,0,1-.036.091A.089.089,0,0,1,19.882,157.394Z" transform="translate(-19.23 -153.28)"/><path class="e" d="M19.882,184.813a.087.087,0,0,1-.042-.011l-.172-.094-.172.094a.088.088,0,0,1-.1-.007.1.1,0,0,1-.036-.091l.033-.2-.139-.14a.1.1,0,0,1-.023-.1.091.091,0,0,1,.073-.064l.192-.029.086-.181a.089.089,0,0,1,.162,0l.086.181.192.029a.091.091,0,0,1,.073.064.1.1,0,0,1-.023.1l-.139.14.033.2a.1.1,0,0,1-.036.091A.088.088,0,0,1,19.882,184.813Z" transform="translate(-19.23 -179.076)"/><path class="e" d="M19.882,212.234a.088.088,0,0,1-.042-.011l-.172-.094-.172.094a.088.088,0,0,1-.1-.007.1.1,0,0,1-.036-.091l.033-.2-.139-.14a.1.1,0,0,1-.023-.1.091.091,0,0,1,.073-.064l.192-.029.086-.18a.089.089,0,0,1,.162,0l.086.18.192.029a.091.091,0,0,1,.073.064.1.1,0,0,1-.023.1l-.139.14.033.2a.1.1,0,0,1-.036.091A.088.088,0,0,1,19.882,212.234Z" transform="translate(-19.23 -204.875)"/><path class="e" d="M70.966,116.263a.087.087,0,0,1-.042-.011l-.172-.094-.172.094a.087.087,0,0,1-.042.011.088.088,0,0,1-.053-.018.1.1,0,0,1-.036-.091l.033-.2-.139-.14a.1.1,0,0,1-.023-.1.091.091,0,0,1,.073-.064l.193-.029.086-.181a.089.089,0,0,1,.162,0l.086.181.192.029a.091.091,0,0,1,.073.064.1.1,0,0,1-.023.1l-.139.14.033.2a.1.1,0,0,1-.036.091A.088.088,0,0,1,70.966,116.263Z" transform="translate(-67.321 -114.583)"/><path class="e" d="M70.966,143.684a.086.086,0,0,1-.042-.011l-.172-.094-.172.094a.086.086,0,0,1-.042.011.088.088,0,0,1-.053-.018.1.1,0,0,1-.036-.091l.033-.2-.139-.14a.1.1,0,0,1-.023-.1.092.092,0,0,1,.073-.064l.193-.029.086-.181a.089.089,0,0,1,.162,0l.086.181.192.029a.092.092,0,0,1,.073.064.1.1,0,0,1-.023.1l-.139.14.033.2a.1.1,0,0,1-.036.091A.088.088,0,0,1,70.966,143.684Z" transform="translate(-67.321 -140.381)"/><path class="e" d="M70.966,171.106a.088.088,0,0,1-.042-.011L70.751,171l-.172.094a.087.087,0,0,1-.042.011.089.089,0,0,1-.053-.018.1.1,0,0,1-.036-.091l.033-.2-.139-.14a.1.1,0,0,1-.023-.1.092.092,0,0,1,.073-.064l.193-.029.086-.181a.089.089,0,0,1,.162,0l.086.181.192.029a.092.092,0,0,1,.073.064.1.1,0,0,1-.023.1l-.139.14.033.2a.1.1,0,0,1-.036.091A.088.088,0,0,1,70.966,171.106Z" transform="translate(-67.321 -166.18)"/><path class="e" d="M70.966,198.524a.088.088,0,0,1-.042-.011l-.172-.094-.172.094a.087.087,0,0,1-.042.011.088.088,0,0,1-.053-.018.1.1,0,0,1-.036-.091l.033-.2-.139-.14a.1.1,0,0,1-.023-.1.092.092,0,0,1,.073-.064l.193-.029.086-.181a.089.089,0,0,1,.162,0l.086.181.192.029a.092.092,0,0,1,.073.064.1.1,0,0,1-.023.1l-.139.14.033.2a.1.1,0,0,1-.036.091A.088.088,0,0,1,70.966,198.524Z" transform="translate(-67.321 -191.976)"/><path class="e" d="M53.6,102.552a.086.086,0,0,1-.042-.011l-.172-.094-.172.094a.086.086,0,0,1-.042.011.088.088,0,0,1-.053-.018.1.1,0,0,1-.036-.091l.033-.2-.139-.14a.1.1,0,0,1-.023-.1.091.091,0,0,1,.073-.064l.192-.029.086-.181a.089.089,0,0,1,.162,0l.086.181.192.029a.091.091,0,0,1,.073.064.1.1,0,0,1-.023.1l-.139.14.033.2a.1.1,0,0,1-.036.091A.089.089,0,0,1,53.6,102.552Z" transform="translate(-50.971 -101.683)"/><path class="e" d="M53.6,129.973a.089.089,0,0,1-.042-.011l-.172-.094-.172.094a.088.088,0,0,1-.042.011.089.089,0,0,1-.053-.018.1.1,0,0,1-.036-.091l.033-.2-.139-.14a.1.1,0,0,1-.023-.1.091.091,0,0,1,.073-.064l.192-.029.086-.181a.089.089,0,0,1,.162,0l.086.181.192.029a.091.091,0,0,1,.073.064.1.1,0,0,1-.023.1l-.139.14.033.2a.1.1,0,0,1-.036.091A.089.089,0,0,1,53.6,129.973Z" transform="translate(-50.971 -127.481)"/><path class="e" d="M53.6,157.394a.089.089,0,0,1-.042-.011l-.172-.094-.172.094a.088.088,0,0,1-.1-.007.1.1,0,0,1-.036-.091l.033-.2-.139-.14a.1.1,0,0,1-.023-.1.091.091,0,0,1,.073-.064l.192-.029.086-.181a.089.089,0,0,1,.162,0l.086.181.192.029a.091.091,0,0,1,.073.064.1.1,0,0,1-.023.1l-.139.14.033.2a.1.1,0,0,1-.036.091A.089.089,0,0,1,53.6,157.394Z" transform="translate(-50.971 -153.28)"/><path class="e" d="M53.6,184.813a.087.087,0,0,1-.042-.011l-.172-.094-.172.094a.088.088,0,0,1-.1-.007.1.1,0,0,1-.036-.091l.033-.2-.139-.14a.1.1,0,0,1-.023-.1.091.091,0,0,1,.073-.064l.192-.029L53.3,184a.089.089,0,0,1,.162,0l.086.181.192.029a.091.091,0,0,1,.073.064.1.1,0,0,1-.023.1l-.139.14.033.2a.1.1,0,0,1-.036.091A.088.088,0,0,1,53.6,184.813Z" transform="translate(-50.971 -179.076)"/><path class="e" d="M53.6,212.234a.088.088,0,0,1-.042-.011l-.172-.094-.172.094a.088.088,0,0,1-.1-.007.1.1,0,0,1-.036-.091l.033-.2-.139-.14a.1.1,0,0,1-.023-.1.091.091,0,0,1,.073-.064l.192-.029.086-.18a.089.089,0,0,1,.162,0l.086.18.192.029a.091.091,0,0,1,.073.064.1.1,0,0,1-.023.1l-.139.14.033.2a.1.1,0,0,1-.036.091A.088.088,0,0,1,53.6,212.234Z" transform="translate(-50.971 -204.875)"/><path class="e" d="M104.681,116.263a.087.087,0,0,1-.042-.011l-.172-.094-.172.094a.087.087,0,0,1-.042.011.088.088,0,0,1-.053-.018.1.1,0,0,1-.036-.091l.033-.2-.139-.14a.1.1,0,0,1-.023-.1.091.091,0,0,1,.073-.064l.192-.029.086-.181a.089.089,0,0,1,.162,0l.086.181.193.029a.091.091,0,0,1,.073.064.1.1,0,0,1-.023.1l-.139.14.033.2a.1.1,0,0,1-.036.091A.089.089,0,0,1,104.681,116.263Z" transform="translate(-99.061 -114.583)"/><path class="e" d="M104.681,143.684a.086.086,0,0,1-.042-.011l-.172-.094-.172.094a.086.086,0,0,1-.042.011.088.088,0,0,1-.053-.018.1.1,0,0,1-.036-.091l.033-.2-.139-.14a.1.1,0,0,1-.023-.1.092.092,0,0,1,.073-.064l.192-.029.086-.181a.089.089,0,0,1,.162,0l.086.181.193.029a.092.092,0,0,1,.073.064.1.1,0,0,1-.023.1l-.139.14.033.2a.1.1,0,0,1-.036.091A.088.088,0,0,1,104.681,143.684Z" transform="translate(-99.061 -140.381)"/><path class="e" d="M104.681,171.106a.088.088,0,0,1-.042-.011l-.172-.094-.172.094a.087.087,0,0,1-.042.011.089.089,0,0,1-.053-.018.1.1,0,0,1-.036-.091l.033-.2-.139-.14a.1.1,0,0,1-.023-.1.091.091,0,0,1,.073-.064l.192-.029.086-.181a.089.089,0,0,1,.162,0l.086.181.193.029a.092.092,0,0,1,.073.064.1.1,0,0,1-.023.1l-.139.14.033.2a.1.1,0,0,1-.036.091A.089.089,0,0,1,104.681,171.106Z" transform="translate(-99.061 -166.18)"/><path class="e" d="M104.681,198.524a.088.088,0,0,1-.042-.011l-.172-.094-.172.094a.087.087,0,0,1-.042.011.088.088,0,0,1-.053-.018.1.1,0,0,1-.036-.091l.033-.2-.139-.14a.1.1,0,0,1-.023-.1.091.091,0,0,1,.073-.064l.192-.029.086-.181a.089.089,0,0,1,.162,0l.086.181.193.029a.092.092,0,0,1,.073.064.1.1,0,0,1-.023.1l-.139.14.033.2a.1.1,0,0,1-.036.091A.088.088,0,0,1,104.681,198.524Z" transform="translate(-99.061 -191.976)"/><path class="e" d="M87.313,102.552a.086.086,0,0,1-.042-.011l-.172-.094-.172.094a.086.086,0,0,1-.042.011.088.088,0,0,1-.053-.018.1.1,0,0,1-.036-.091l.033-.2-.139-.14a.1.1,0,0,1-.023-.1.091.091,0,0,1,.073-.064l.193-.029.086-.181a.089.089,0,0,1,.162,0l.086.181.193.029a.091.091,0,0,1,.073.064.1.1,0,0,1-.023.1l-.139.14.033.2a.1.1,0,0,1-.036.091A.088.088,0,0,1,87.313,102.552Z" transform="translate(-82.71 -101.683)"/><path class="e" d="M87.313,129.973a.089.089,0,0,1-.042-.011l-.172-.094-.172.094a.088.088,0,0,1-.042.011.089.089,0,0,1-.053-.018.1.1,0,0,1-.036-.091l.033-.2-.139-.14a.1.1,0,0,1-.023-.1.091.091,0,0,1,.073-.064l.193-.029.086-.181a.089.089,0,0,1,.162,0l.086.181.193.029a.091.091,0,0,1,.073.064.1.1,0,0,1-.023.1l-.139.14.033.2a.1.1,0,0,1-.036.091A.088.088,0,0,1,87.313,129.973Z" transform="translate(-82.71 -127.481)"/><path class="e" d="M87.313,157.394a.089.089,0,0,1-.042-.011l-.172-.094-.172.094a.088.088,0,0,1-.1-.007.1.1,0,0,1-.036-.091l.033-.2-.139-.14a.1.1,0,0,1-.023-.1.091.091,0,0,1,.073-.064l.193-.029.086-.181a.089.089,0,0,1,.162,0l.086.181.193.029a.091.091,0,0,1,.073.064.1.1,0,0,1-.023.1l-.139.14.033.2a.1.1,0,0,1-.036.091A.088.088,0,0,1,87.313,157.394Z" transform="translate(-82.71 -153.28)"/><path class="e" d="M87.313,184.813a.087.087,0,0,1-.042-.011l-.172-.094-.172.094a.087.087,0,0,1-.042.011.088.088,0,0,1-.053-.018.1.1,0,0,1-.036-.091l.033-.2-.139-.14a.1.1,0,0,1-.023-.1.091.091,0,0,1,.073-.064l.193-.029.086-.181a.089.089,0,0,1,.162,0l.086.181.193.029a.091.091,0,0,1,.073.064.1.1,0,0,1-.023.1l-.139.14.033.2a.1.1,0,0,1-.036.091A.088.088,0,0,1,87.313,184.813Z" transform="translate(-82.71 -179.076)"/><path class="e" d="M87.313,212.234a.088.088,0,0,1-.042-.011l-.172-.094-.172.094a.088.088,0,0,1-.1-.007.1.1,0,0,1-.036-.091l.033-.2-.139-.14a.1.1,0,0,1-.023-.1.091.091,0,0,1,.073-.064l.193-.029.086-.18a.089.089,0,0,1,.162,0l.086.18.193.029a.091.091,0,0,1,.073.064.1.1,0,0,1-.023.1l-.139.14.033.2a.1.1,0,0,1-.036.091A.087.087,0,0,1,87.313,212.234Z" transform="translate(-82.71 -204.875)"/><path class="e" d="M138.4,116.263a.087.087,0,0,1-.042-.011l-.172-.094-.172.094a.088.088,0,0,1-.1-.007.1.1,0,0,1-.036-.091l.033-.2-.139-.14a.1.1,0,0,1-.023-.1.091.091,0,0,1,.073-.064l.192-.029.086-.181a.089.089,0,0,1,.162,0l.086.181.192.029a.091.091,0,0,1,.073.064.1.1,0,0,1-.023.1l-.139.14.033.2a.1.1,0,0,1-.036.091A.087.087,0,0,1,138.4,116.263Z" transform="translate(-130.8 -114.583)"/><path class="e" d="M138.4,143.684a.086.086,0,0,1-.042-.011l-.172-.094-.172.094a.087.087,0,0,1-.042.011.088.088,0,0,1-.053-.018.1.1,0,0,1-.036-.091l.033-.2-.139-.14a.1.1,0,0,1-.023-.1.091.091,0,0,1,.073-.064l.192-.029.086-.181a.089.089,0,0,1,.162,0l.086.181.192.029a.091.091,0,0,1,.073.064.1.1,0,0,1-.023.1l-.139.14.033.2a.1.1,0,0,1-.036.091A.087.087,0,0,1,138.4,143.684Z" transform="translate(-130.8 -140.381)"/><path class="e" d="M138.4,171.106a.088.088,0,0,1-.042-.011l-.172-.094-.172.094a.087.087,0,0,1-.042.011.089.089,0,0,1-.053-.018.1.1,0,0,1-.036-.091l.033-.2-.139-.14a.1.1,0,0,1-.023-.1.091.091,0,0,1,.073-.064l.192-.029.086-.181a.089.089,0,0,1,.162,0l.086.181.192.029a.091.091,0,0,1,.073.064.1.1,0,0,1-.023.1l-.139.14.033.2a.1.1,0,0,1-.036.091A.087.087,0,0,1,138.4,171.106Z" transform="translate(-130.8 -166.18)"/><path class="e" d="M138.4,198.524a.088.088,0,0,1-.042-.011l-.172-.094-.172.094a.088.088,0,0,1-.1-.007.1.1,0,0,1-.036-.091l.033-.2-.139-.14a.1.1,0,0,1-.023-.1.091.091,0,0,1,.073-.064l.192-.029.086-.181a.089.089,0,0,1,.162,0l.086.181.192.029a.091.091,0,0,1,.073.064.1.1,0,0,1-.023.1l-.139.14.033.2a.1.1,0,0,1-.036.091A.087.087,0,0,1,138.4,198.524Z" transform="translate(-130.8 -191.976)"/><path class="e" d="M121.028,102.552a.087.087,0,0,1-.042-.011l-.172-.094-.172.094a.087.087,0,0,1-.042.011.089.089,0,0,1-.053-.018.1.1,0,0,1-.036-.091l.033-.2-.139-.14a.1.1,0,0,1-.023-.1.091.091,0,0,1,.073-.064l.193-.029.086-.181a.089.089,0,0,1,.162,0l.086.181.192.029a.091.091,0,0,1,.073.064.1.1,0,0,1-.023.1l-.139.14.033.2a.1.1,0,0,1-.036.091A.088.088,0,0,1,121.028,102.552Z" transform="translate(-114.45 -101.683)"/><path class="e" d="M121.028,129.973a.089.089,0,0,1-.042-.011l-.172-.094-.172.094a.088.088,0,0,1-.042.011.089.089,0,0,1-.053-.018.1.1,0,0,1-.036-.091l.033-.2-.139-.14a.1.1,0,0,1-.023-.1.091.091,0,0,1,.073-.064l.193-.029.086-.181a.089.089,0,0,1,.162,0l.086.181.192.029a.091.091,0,0,1,.073.064.1.1,0,0,1-.023.1l-.139.14.033.2a.1.1,0,0,1-.036.091A.089.089,0,0,1,121.028,129.973Z" transform="translate(-114.45 -127.481)"/><path class="e" d="M121.028,157.394a.089.089,0,0,1-.042-.011l-.172-.094-.172.094a.089.089,0,0,1-.1-.007.1.1,0,0,1-.036-.091l.033-.2-.139-.14a.1.1,0,0,1-.023-.1.091.091,0,0,1,.073-.064l.193-.029.086-.181a.089.089,0,0,1,.162,0l.086.181.192.029a.091.091,0,0,1,.073.064.1.1,0,0,1-.023.1l-.139.14.033.2a.1.1,0,0,1-.036.091A.089.089,0,0,1,121.028,157.394Z" transform="translate(-114.45 -153.28)"/><path class="e" d="M121.028,184.813a.087.087,0,0,1-.042-.011l-.172-.094-.172.094a.087.087,0,0,1-.042.011.089.089,0,0,1-.053-.018.1.1,0,0,1-.036-.091l.033-.2-.139-.14a.1.1,0,0,1-.023-.1.091.091,0,0,1,.073-.064l.193-.029.086-.181a.089.089,0,0,1,.162,0l.086.181.192.029a.091.091,0,0,1,.073.064.1.1,0,0,1-.023.1l-.139.14.033.2a.1.1,0,0,1-.036.091A.088.088,0,0,1,121.028,184.813Z" transform="translate(-114.45 -179.076)"/><path class="e" d="M121.028,212.234a.089.089,0,0,1-.042-.011l-.172-.094-.172.094a.088.088,0,0,1-.1-.007.1.1,0,0,1-.036-.091l.033-.2-.139-.14a.1.1,0,0,1-.023-.1.091.091,0,0,1,.073-.064l.193-.029.086-.18a.089.089,0,0,1,.162,0l.086.18.192.029a.091.091,0,0,1,.073.064.1.1,0,0,1-.023.1l-.139.14.033.2a.1.1,0,0,1-.036.091A.087.087,0,0,1,121.028,212.234Z" transform="translate(-114.45 -204.875)"/><path class="e" d="M172.112,116.263a.087.087,0,0,1-.042-.011l-.172-.094-.172.094a.088.088,0,0,1-.1-.007.094.094,0,0,1-.036-.091l.033-.2-.139-.14a.1.1,0,0,1-.023-.1.091.091,0,0,1,.073-.064l.192-.029.086-.181a.089.089,0,0,1,.162,0l.086.181.193.029a.091.091,0,0,1,.073.064.1.1,0,0,1-.023.1l-.139.14.033.2a.1.1,0,0,1-.036.091A.088.088,0,0,1,172.112,116.263Z" transform="translate(-162.541 -114.583)"/><path class="e" d="M172.112,143.684a.086.086,0,0,1-.042-.011l-.172-.094-.172.094a.087.087,0,0,1-.042.011.088.088,0,0,1-.053-.018.094.094,0,0,1-.036-.091l.033-.2-.139-.14a.1.1,0,0,1-.023-.1.092.092,0,0,1,.073-.064l.192-.029.086-.181a.089.089,0,0,1,.162,0l.086.181.193.029a.091.091,0,0,1,.073.064.1.1,0,0,1-.023.1l-.139.14.033.2a.1.1,0,0,1-.036.091A.088.088,0,0,1,172.112,143.684Z" transform="translate(-162.541 -140.381)"/><path class="e" d="M172.112,171.106a.088.088,0,0,1-.042-.011L171.9,171l-.172.094a.087.087,0,0,1-.042.011.088.088,0,0,1-.053-.018.094.094,0,0,1-.036-.091l.033-.2-.139-.14a.1.1,0,0,1-.023-.1.091.091,0,0,1,.073-.064l.192-.029.086-.181a.089.089,0,0,1,.162,0l.086.181.193.029a.091.091,0,0,1,.073.064.1.1,0,0,1-.023.1l-.139.14.033.2a.1.1,0,0,1-.036.091A.088.088,0,0,1,172.112,171.106Z" transform="translate(-162.541 -166.18)"/><path class="e" d="M172.112,198.524a.088.088,0,0,1-.042-.011l-.172-.094-.172.094a.088.088,0,0,1-.1-.007.094.094,0,0,1-.036-.091l.033-.2-.139-.14a.1.1,0,0,1-.023-.1.092.092,0,0,1,.073-.064l.192-.029.086-.181a.089.089,0,0,1,.162,0l.086.181.193.029a.091.091,0,0,1,.073.064.1.1,0,0,1-.023.1l-.139.14.033.2a.1.1,0,0,1-.036.091A.088.088,0,0,1,172.112,198.524Z" transform="translate(-162.541 -191.976)"/><path class="e" d="M154.744,102.552a.086.086,0,0,1-.042-.011l-.172-.094-.172.094a.086.086,0,0,1-.042.011.088.088,0,0,1-.053-.018.1.1,0,0,1-.036-.091l.033-.2-.139-.14a.1.1,0,0,1-.023-.1.091.091,0,0,1,.073-.064l.193-.029.086-.181a.089.089,0,0,1,.162,0l.086.181.193.029a.091.091,0,0,1,.073.064.1.1,0,0,1-.023.1l-.139.14.033.2a.1.1,0,0,1-.036.091A.089.089,0,0,1,154.744,102.552Z" transform="translate(-146.191 -101.683)"/><path class="e" d="M154.744,129.973a.089.089,0,0,1-.042-.011l-.172-.094-.172.094a.088.088,0,0,1-.042.011.089.089,0,0,1-.053-.018.1.1,0,0,1-.036-.091l.033-.2-.139-.14a.1.1,0,0,1-.023-.1.091.091,0,0,1,.073-.064l.193-.029.086-.181a.089.089,0,0,1,.162,0l.086.181.193.029a.091.091,0,0,1,.073.064.1.1,0,0,1-.023.1l-.139.14.033.2a.1.1,0,0,1-.036.091A.089.089,0,0,1,154.744,129.973Z" transform="translate(-146.191 -127.481)"/><path class="e" d="M154.744,157.394a.088.088,0,0,1-.042-.011l-.172-.094-.172.094a.088.088,0,0,1-.1-.007.1.1,0,0,1-.036-.091l.033-.2-.139-.14a.1.1,0,0,1-.023-.1.091.091,0,0,1,.073-.064l.193-.029.086-.181a.089.089,0,0,1,.162,0l.086.181.193.029a.091.091,0,0,1,.073.064.1.1,0,0,1-.023.1l-.139.14.033.2a.1.1,0,0,1-.036.091A.089.089,0,0,1,154.744,157.394Z" transform="translate(-146.191 -153.28)"/><path class="e" d="M154.744,184.813a.086.086,0,0,1-.042-.011l-.172-.094-.172.094a.088.088,0,0,1-.1-.007.1.1,0,0,1-.036-.091l.033-.2-.139-.14a.1.1,0,0,1-.023-.1.091.091,0,0,1,.073-.064l.193-.029.086-.181a.089.089,0,0,1,.162,0l.086.181.193.029a.091.091,0,0,1,.073.064.1.1,0,0,1-.023.1l-.139.14.033.2a.1.1,0,0,1-.036.091A.088.088,0,0,1,154.744,184.813Z" transform="translate(-146.191 -179.076)"/><path class="e" d="M154.744,212.234a.088.088,0,0,1-.042-.011l-.172-.094-.172.094a.088.088,0,0,1-.1-.007.1.1,0,0,1-.036-.091l.033-.2-.139-.14a.1.1,0,0,1-.023-.1.091.091,0,0,1,.073-.064l.193-.029.086-.18a.089.089,0,0,1,.162,0l.086.18.193.029a.091.091,0,0,1,.073.064.1.1,0,0,1-.023.1l-.139.14.033.2a.1.1,0,0,1-.036.091A.088.088,0,0,1,154.744,212.234Z" transform="translate(-146.191 -204.875)"/><path class="e" d="M188.459,102.552a.086.086,0,0,1-.042-.011l-.172-.094-.172.094a.087.087,0,0,1-.042.011.089.089,0,0,1-.053-.018.1.1,0,0,1-.036-.091l.033-.2-.139-.14a.1.1,0,0,1-.023-.1.091.091,0,0,1,.073-.064l.192-.029.086-.181a.089.089,0,0,1,.162,0l.086.181.192.029a.092.092,0,0,1,.073.064.1.1,0,0,1-.023.1l-.139.14.033.2a.1.1,0,0,1-.036.091A.088.088,0,0,1,188.459,102.552Z" transform="translate(-177.929 -101.683)"/><path class="e" d="M188.459,129.973a.088.088,0,0,1-.042-.011l-.172-.094-.172.094a.088.088,0,0,1-.042.011.089.089,0,0,1-.053-.018.1.1,0,0,1-.036-.091l.033-.2-.139-.14a.1.1,0,0,1-.023-.1.091.091,0,0,1,.073-.064l.192-.029.086-.181a.089.089,0,0,1,.162,0l.086.181.192.029a.091.091,0,0,1,.073.064.1.1,0,0,1-.023.1l-.139.14.033.2a.1.1,0,0,1-.036.091A.088.088,0,0,1,188.459,129.973Z" transform="translate(-177.929 -127.481)"/><path class="e" d="M188.459,157.394a.088.088,0,0,1-.042-.011l-.172-.094-.172.094a.089.089,0,0,1-.1-.007.1.1,0,0,1-.036-.091l.033-.2-.139-.14a.1.1,0,0,1-.023-.1.091.091,0,0,1,.073-.064l.192-.029.086-.181a.089.089,0,0,1,.162,0l.086.181.192.029a.091.091,0,0,1,.073.064.1.1,0,0,1-.023.1l-.139.14.033.2a.1.1,0,0,1-.036.091A.088.088,0,0,1,188.459,157.394Z" transform="translate(-177.929 -153.28)"/><path class="e" d="M188.459,184.813a.086.086,0,0,1-.042-.011l-.172-.094-.172.094a.087.087,0,0,1-.042.011.089.089,0,0,1-.053-.018.1.1,0,0,1-.036-.091l.033-.2-.139-.14a.1.1,0,0,1-.023-.1.091.091,0,0,1,.073-.064l.192-.029.086-.181a.089.089,0,0,1,.162,0l.086.181.192.029a.092.092,0,0,1,.073.064.1.1,0,0,1-.023.1l-.139.14.033.2a.1.1,0,0,1-.036.091A.087.087,0,0,1,188.459,184.813Z" transform="translate(-177.929 -179.076)"/><path class="e" d="M188.459,212.234a.088.088,0,0,1-.042-.011l-.172-.094-.172.094a.088.088,0,0,1-.1-.007.1.1,0,0,1-.036-.091l.033-.2-.139-.14a.1.1,0,0,1-.023-.1.091.091,0,0,1,.073-.064l.192-.029.086-.18a.089.089,0,0,1,.162,0l.086.18.192.029a.091.091,0,0,1,.073.064.1.1,0,0,1-.023.1l-.139.14.033.2a.1.1,0,0,1-.036.091A.087.087,0,0,1,188.459,212.234Z" transform="translate(-177.929 -204.875)"/></g><rect class="c" width="1.926" height="1.924" transform="translate(0 101.466)"/><path class="c" d="M1.926,393.773v-1.286H0v1.286a.637.637,0,0,0,.632.638H2.558A.637.637,0,0,1,1.926,393.773Z" transform="translate(0 -287.406)"/></g></svg>